# xmcd
#
# Track frame offsets:
#	150
#	21262
#	39012
#	55392
#	75217
#	94072
#	107820
#	125610
#	140795
#	157790
#	176732
#	192145
#
# Disc length: 2825 seconds
#
# Revision: 8
# Processed by: cddbd v1.5.2PL0 Copyright (c) Steve Scherf et al.
# Submitted via: EasyCDDAExtractor 15.3.0.1
#
DISCID=930b070c
DTITLE=Ednita Nazario - Mis Mejores Canciones - 12 Super Exitos
DYEAR=1993
DGENRE=Latin
TTITLE0=Lo Que Son Las Cosas
TTITLE1=Tres Deseos
TTITLE2=Abrazame
TTITLE3=Aqui Estoy Yo
TTITLE4=Despues De Tanto
TTITLE5=Vete Vete
TTITLE6=Eres Libre
TTITLE7=Mujer Sola
TTITLE8=Yo Lo Siento Ahora
TTITLE9=Mas Que Un Amigo
TTITLE10=Mio
TTITLE11=Encuentro
EXTD=
EXTT0=
EXTT1=
EXTT2=
EXTT3=
EXTT4=
EXTT5=
EXTT6=
EXTT7=
EXTT8=
EXTT9=
EXTT10=
EXTT11=
PLAYORDER=
